<svg xmlns="http://www.w3.org/2000/svg" version="1.0" viewBox="0 0 498.4 481.8" style="fill:#000" aria-label="Gaming Logo Skull Hoodie"><defs><clipPath id="a"><path d="M0 0h498.398v481.8H0Zm0 0"/></clipPath></defs><g clip-path="url(#a)"><path d="M479.785 30.031a3.971 3.971 0 0 1-2.828 1.172 3.974 3.974 0 0 1-2.832-1.172 3.98 3.98 0 0 1-1.172-2.828c0-1.07.418-2.074 1.176-2.828a3.958 3.958 0 0 1 2.828-1.172c1.066 0 2.07.414 2.828 1.172a4.006 4.006 0 0 1 0 5.656Zm-455.515 0a3.971 3.971 0 0 1-2.829 1.172 3.974 3.974 0 0 1-2.832-1.172 4.006 4.006 0 0 1 0-5.656 3.974 3.974 0 0 1 2.832-1.172c1.067 0 2.07.414 2.829 1.172a3.974 3.974 0 0 1 1.171 2.828 3.98 3.98 0 0 1-1.171 2.828Zm467.85-17.996a21.307 21.307 0 0 0-15.164-6.281 21.31 21.31 0 0 0-15.168 6.281 21.33 21.33 0 0 0-6.285 15.168c0 .902.074 1.793.183 2.676-9.488 8.566-37.054 33.371-46.039 40.426a90.788 90.788 0 0 0-4.882 4.101l-26.45-26.449a3.997 3.997 0 0 0-5.656 0l-11.496 11.496a3.999 3.999 0 0 0 0 5.656l12.902 12.903c-1.96 1.93-4.195 4.133-6.687 6.59-5.871-12.559-13.074-24.372-21.434-34.942C320.621 17.64 287.383.004 252.352.004c-15.657 0-32.075 4.71-48.797 14.004-15.14 8.414-30.063 20.488-43.153 34.922-10.683 11.777-19.789 24.605-27.078 37.949-3.433-3.387-6.449-6.36-8.992-8.867l12.902-12.903a3.999 3.999 0 0 0 0-5.656l-11.496-11.496a3.997 3.997 0 0 0-5.656 0l-26.453 26.45a90.57 90.57 0 0 0-4.879-4.102c-8.984-7.055-36.555-31.86-46.043-40.426.11-.883.184-1.774.184-2.676a21.31 21.31 0 0 0-6.282-15.168 21.323 21.323 0 0 0-15.168-6.281 21.31 21.31 0 0 0-15.168 6.281c-8.363 8.363-8.363 21.973 0 30.336a21.31 21.31 0 0 0 15.168 6.281 21.8 21.8 0 0 0 2.676-.183c8.567 9.492 33.371 37.058 40.422 46.043a90.766 90.766 0 0 0 4.106 4.879l-26.45 26.453a3.999 3.999 0 0 0 0 5.656l11.496 11.496a3.997 3.997 0 0 0 5.657 0l12.902-12.902c8.426 8.554 22.11 22.422 39.137 39.633-7.63 45.48-35.203 93.214-47.719 113.09-7.523 11.945-8.305 27.238-2.04 39.91 7.263 14.683 15.974 31.484 24.552 46.062-4.782 5.352-8.278 9.492-10.223 12.168-24.8 34.106-38.066 79.008-38.617 80.902a3.992 3.992 0 0 0 1.012 3.95 3.989 3.989 0 0 0 3.945 1.011c1.894-.55 46.8-13.816 80.902-38.617 2.567-1.863 6.477-5.156 11.508-9.633 33.227 20.762 86.16 49.805 106.008 60.594a14.192 14.192 0 0 0 8.25 2.637l.125-.004.09.004a14.203 14.203 0 0 0 8.246-2.637c19.875-10.805 72.941-39.922 106.16-60.687 5.082 4.527 9.027 7.847 11.61 9.726 34.105 24.8 79.007 38.067 80.902 38.617a4.002 4.002 0 0 0 3.95-1.012c.007-.011.014-.023.026-.03.488-.5.828-1.11 1.004-1.766a3.99 3.99 0 0 0-.02-2.153c-.554-1.894-13.82-46.796-38.617-80.902-1.968-2.703-5.515-6.906-10.378-12.34 8.546-14.539 17.218-31.262 24.449-45.89 6.27-12.672 5.488-27.965-2.035-39.91-12.5-19.844-40-67.458-47.684-112.872a28601.423 28601.423 0 0 0 39.355-39.851l12.903 12.902a3.974 3.974 0 0 0 2.828 1.172c1.023 0 2.047-.39 2.828-1.172l11.496-11.496a3.997 3.997 0 0 0 0-5.656L429.75 99.39a90.766 90.766 0 0 0 4.105-4.88c7.055-8.984 31.856-36.554 40.426-46.042.88.11 1.77.183 2.676.183 5.727 0 11.113-2.23 15.168-6.28 8.363-8.364 8.363-21.974-.004-30.337" style="fill:#271347"/></g><path d="M209.254 207.105c0-2.238-.649-4.55-1.762-6.492-2.289 4.012-2.273 8.973 0 12.985 1.11-1.942 1.762-4.254 1.762-6.493Zm-1.762-7.835c10.117 0 10.082 15.664 0 15.671-10.082.008-10.11-15.671 0-15.671Zm57.703 62.82c-.468-7.059-3.828-14.164-8.004-19.805-1.687-2.055-4.503-6.996-7.808-7.031-1.746-.024-3.645 1.824-4.977 2.867-7.207 5.645-9.937 12.852-11.43 21.582-.292 1.719-.804 3.68-.96 5.524-.325 3.836.703 6.992 2.68 10.289 1.648 2.75 4.085 5.836 7.288 6.82 4.016 1.234 6.801-1.883 7.844-5.488 3.266 5.129 8.164 4.804 11.297-.164 2.691-4.27 4.406-9.532 4.07-14.594Zm68.594-14.281c.344.757 1.977 3.175 1.8 4-.132.62-2 1.78-2.437 2.164a333.716 333.716 0 0 1-5.14 4.43c-3.242 2.73-6.578 5.84-10.395 7.745-2.535 1.27-5.047 2.504-7.496 3.942-1.351.793-2.7 1.863-4.152 2.46-3.918 1.602-7.621 2.54-11.102 5.141-3.062 2.29-5.64 5.188-7.629 8.442-1.035 1.687-1.98 3.472-2.601 5.355-.418 1.282-.614 1.606-1.082 2.512-1.285 2.492-1.938 5.688-2.512 8.414-.703 3.32-1.125 6.852-.531 10.223.629 3.547 2.718 6.812 4.312 10 .742 1.484 2.219 3.406 2.559 5.043.226 1.097-.106 1.242-.86 2.414-1.023 1.594-1.957 3.054-3.289 4.386-.804.801-.98.922-1.992 1.153-.965.219-1.445-.102-1.922.59-.379.547-.507 2.218-.64 2.937-.36 1.95.004 3.918.277 5.86.621 4.375 1.211 9.996 3.559 13.847l-3.164 1.442c-.477-1.235-.36-2.676-.637-3.977-.336-1.562-.84-3.098-1.414-4.586-1.219-3.156-2.903-6.125-5.059-8.738-1.754-2.125-3.969-4.078-6.933-3.246-3.34.933-3.614 3.582-4.485 6.375-.152.488-.804 1.675-.742 2.195.094.793-.094.266.734.813 1.258.832 2.446 1.12 3.575 2.3 3.593 3.743 1.898 8.637.367 13.063-1.113-3.57-1.063-7.145-1.774-10.738-.492-2.489-.57.05-.656 1.18a32.167 32.167 0 0 0 .746 9.706c.164.703.899 2.207.543 2.805-.457.758-3.105 1.41-3.957 1.797.106-6.715-.441-13.746-3.832-19.703-1.426-2.504-3.371-4.91-5.875-6.403-3.277-1.949-5.629-1.355-8.8.16-.18-1.359-.36-2.714-.544-4.074-1.832 4.586-3.597 8.813-4.324 13.746-.265-1.695-.773-3.296-1.12-4.957-.192-.91.339-2.644-.786-2.683 1.945-.781.047-3.059-1.055-4.031-1.527-1.348-4.492-1.786-5.996-.25-.625.636-.816 1.695-1.41 2.363-1.29 1.433-2.727 2.414-3.758 4.156-1.972 3.32-2.726 7.098-2.793 10.926-1.191-5.258-1.98-10.512-2.254-15.899a169.136 169.136 0 0 1-.164-4.218c-.015-.696.348-2.754-.054-3.293-.301-.403-1.043-.157-1.508-.465-.895-.598-.426-1.961-.492-3.188-2.57 2.871-3.555 6.664-4.25 10.36-.372-.903-.79-3.598-2.114-2.871.145-1.528.082-1.88-.43-3.297-.214-.594-.523-3.227-.804-1.946a36.672 36.672 0 0 0-.254-.62l-1.988 1.519c-.227-1-.668-5.188-1.52-5.188.035-2.976.195-5.953.317-8.93.144-3.585-.122-7.476.445-11.019.36-2.242 2.488-4.21 3.824-6.043.89-1.223 2.422-2.672 2.969-4.082.808-2.098-.235-5.844-.574-8.043.672 1.73 1.289 3.48 1.863 5.242 1.59-7.746-2.535-15.996-7.934-21.343.782-.52 1.684-.692 1.317-1.637-.438.543-.88 1.09-1.317 1.637-1.672-2.383-3.238-4.84-4.742-7.332-1.887-3.125-3.332-6.586-5.805-9.313-4.187-4.61-9.613-8.195-14.82-11.55-1.508-.97-3.867-1.876-5.125-3.165-.726-.738-.555-.945-.555-2.207v-12.715c10.329.344 20.778.457 31.082-.457 7.778-.687 14.985-3.183 22.196-6.097 3.648-1.477 7.64-3.586 11.613-3.907 3.652-.296 5.953 1.309 9.059 2.68 1.328.59 2.933.566 4.398.969.426.117.863.297 1.3.36 1.282.175.634.296 1.497-.266 1.289-.844 1.945-2.153 3.57-2.645 2.555-.766 4.492.953 6.364 2.418 2.539 1.98 4.996 4.059 7.562 6.004 5.055 3.832 11.371 8.598 18.063 8.324 5.472-.226 11.043-2.23 16.199-3.914 6.476-2.113 12.86-4.516 19.183-7.035 3.286-1.305 6.051-2.32 9.512-3.027-.648 1.984-1.297 3.976-1.84 5.996-.293 1.09-.375 2.453-.926 3.43-.601 1.077-1.761 1.785-2.52 2.75-1.272 1.613-2.753 5.062-2.358 7.324.32 1.812 2.765 1.457 4.394 1.492.684 1.504 1.363 3.004 2.043 4.508Zm-101.926-56.786c1.582 2.864 2.672 6.282 2.535 9.59 2.262-.96 4.747-1.457 7.196-1.511 2.41-.055 5.453-.079 7.176-2.157 1.539-1.86 1.683-5.515 2.171-7.875a195.24 195.24 0 0 0 1.157-5.992c.308 3.246.75 6.484 1.293 9.703.191 1.149.156 3.485.902 4.301.594.645 1.945 1.102 2.7 1.492 4.495 2.332 12.198 6.192 17.265 3.375 1.77-.984 3.066-3.05 4.465-4.46a56.4 56.4 0 0 1 10.43-8.305c3.46-2.141 7.117-3.957 10.855-5.555 2.222-.95 4.984-1.496 7.066-2.695 1.98-1.133 2.531-4.47 2.805-6.704.398-3.296-.152-6.632-1.25-9.746-2.086-5.898-5.992-11.086-10.293-15.554-1.606-1.668-3.367-4.016-5.656-4.555-4.82-1.137-10.02-1.402-14.922-2.09-1.055-.148-2.996-.808-4.028-.504-1.57.465-3.496 2.649-4.789 3.625-2.464 1.867-4.93 3.735-7.398 5.602-.77.582-1.898 1.172-2.527 1.914-.84.984-.641 1.691-.797 3.215-.676-1.133-.887-3.164-2.266-3.176-1.36-1.93-2.906-5.434-4.844-6.703-.773-.512-2.105-.676-2.976-.957-2.004-.64-4.008-1.285-6.012-1.926l-11.25-3.61c-2.305-.738-2.043-.699-3.617 1.16-2.672 3.157-5.344 6.31-8.016 9.466-2.074 2.449-4.957 4.96-6.562 7.746-.848 1.468-.488 3.207-.293 4.941.52 4.598 1.953 9.176 4.586 13.008 4.11 5.973 11.297 8.414 14.894 14.937ZM449.63 458.437l-.04-.027c.114.043.24.086.356.125-2.746-4.074-5.492-8.144-8.238-12.219-8.05-11.937-16.098-23.875-24.144-35.808-2.079-3.082-6.02-3.531-9.442-4.801l-17.5-6.492c-6.207 6.355-14.297 11.144-21.762 15.926-.582.37-1.152.742-1.754 1.12a298.07 298.07 0 0 0 4.844 4.212l.012.011c2.27 1.926 4.148 3.438 5.586 4.485a180.887 180.887 0 0 0 5.672 3.945c7.445 4.977 15.238 9.43 23.215 13.496 7.418 3.781 14.675 7.063 21.285 9.824l-.012.024a454.849 454.849 0 0 0 10.414 4.133l.031.011c-.011 0-.02-.007-.03-.011 0 0 .003-.004.003-.008l.617.246-.59-.227c.203.059.403.133.59.227l.164.058.328.125c10.786 4.067 17.985 6.168 17.985 6.168l-7.274-4.445c-.12-.043-.215-.066-.316-.098Zm11.45 5.575a4.095 4.095 0 0 1-1.005 1.765c1.242.32 2.485.637 3.727.957-.906-.906-1.813-1.816-2.723-2.722Zm-89.876-226.934c-1.039-9.656-4.183-18.512-8.148-27.32-3.97-8.828-8.5-17.399-12.426-26.246-1.832-4.133-3.465-8.223-5.762-12.137-2.34-3.992-4.965-7.816-7.644-11.59-5.578-7.863-11.614-15.418-17.98-22.656-6.477-7.36-13.352-14.281-19.313-22.078-5.985-7.832-11.52-16-17.653-23.719-5.656-7.113-12.937-16.3-22.488-17.867-8.601-1.414-18.078 2.8-24.894 7.691-7.875 5.653-14.25 13.211-19.985 20.953-11.648 15.727-21.21 32.907-31.777 49.348-8.766 13.645-18.184 26.41-25.383 41.027-7.02 14.243-13.57 29.176-18.61 44.23-6.546 19.548-5.074 41.302-1.812 61.333 3.102 19.047 8.367 37.719 14.902 55.855 1.688 4.684 3.473 9.336 5.438 13.91-7.36-21.351-13.098-43.449-16.547-65.777-3.465-22.433-4.992-46.476 3.367-68.035 7.543-19.45 15.614-39.246 26.844-56.906 4.117-6.473 8.785-12.586 13.02-18.985 6.335-9.574 12.3-19.379 18.39-29.109 5.637-9.008 11.348-17.996 17.836-26.422 6.348-8.242 13.715-16.43 23.184-21.105 4.246-2.094 9.43-3.692 14.215-3.395 4.73.293 8.785 3.586 12.109 6.684 8.043 7.492 14.25 16.933 20.742 25.73 13.328 18.059 29.738 33.41 42.848 51.664 3.148 4.383 6.25 8.856 8.86 13.59 2.526 4.582 4.296 9.566 6.562 14.285 4.597 9.594 9.586 19.024 13.53 28.914 8.442 21.16 6.212 45.477 3.9 67.649-2.387 22.898-6.4 45.804-12.329 68.058-1.496 5.614-3.14 11.192-5.012 16.692 6.524-16.102 10.836-33.133 14.434-50.098 3.723-17.539 6.492-35.332 7.762-53.223.71-10.296.93-20.671-.18-30.945ZM121.297 409.426c-.582-.332-1.016-.317-1.531-.57-4.313-2.09-7.504-6.157-11.403-8.797-1.203-.813-.37-.637-1.5-.332-.816.218-1.68.824-2.441 1.195-4.32 2.117-8.64 4.238-12.961 6.355-1.512.743-2.797 1.188-3.89 2.403-4.7 5.238-8.934 10.992-13.376 16.457-9.632 11.851-19.265 23.703-28.902 35.554a322.58 322.58 0 0 0 44.937-18.406c8.22-4.12 16.254-8.633 23.934-13.695 1.223-.805 17.465-12.793 17.02-13.235-2.387-1.515-4.649-3.105-6.926-4.77-.969-.706-1.922-1.565-2.961-2.16ZM81.969 134.254a34658.2 34658.2 0 0 0 30.168 30.531c.117-.847.207-1.691.304-2.535 1.22-10.363 1.621-20.617 3.899-30.855.492-2.23 1.48-4.176.808-6.32-.523-1.677-1.32-3.313-1.968-4.946l-9.399-23.567c-5.77 5.774-11.543 11.543-17.312 17.313l-10.543 10.54c-.617.616-2.328 1.772-2.614 2.616-.398 1.192 5.551 6.102 6.657 7.223Zm301.488 4.426c.7 4.984 1.195 9.996 1.469 15.023.16 2.934.457 5.856.804 8.777.098.84.192 1.684.31 2.532a31833.819 31833.819 0 0 0 37.276-37.746l-.011-.012c-8.989-8.988-17.973-17.977-26.961-26.965-3.715 6.254-7.43 12.508-11.149 18.758-1.129 1.902-3.511 4.562-4.007 6.746-.34 1.508.976 4.918 1.246 6.437.378 2.145.718 4.297 1.023 6.45ZM246.418 350.027c-3.473 0-3.922 8.203-4.012 10.586-.082 2.215.446 4.492.992 6.621.211.813.489 3.149 1.122 3.786.41.406 3.03.585 3.683.253 1.469-.742.582-8.722.527-10.644-.046-1.656.375-10.602-2.312-10.602Zm47.816-66.992c-.214.215-.43.43-.644.64.078-.066.492-.331.644-.64Zm-6.757 70.13c.058.632.382 1.808.21 2.401-.39 1.348-2.136 1.922-3.253 2.43.53-6.164-2-13.11-3.852-18.883 3.734 1.664 5.371 4.239 6.113 8.172.371 1.942.598 3.91.782 5.88" style="fill:#fff"/><path d="m263.695 367.426.13-.063c-.02-.05-.032-.105-.048-.16Zm-2.98 59.605c-1.317 0-2.48.555-3.352 1.473l-4.82-3.484 4.406-3.29c.938.832 2.137 1.344 3.406 1.344 2.817 0 4.766-2.445 4.38-5.328-.368-2.734-2.731-4.855-5.298-4.855-2.562 0-4.542 2.12-4.417 4.855.027.54.128 1.063.3 1.559l-5.343 3.86-5.344-3.86c.172-.496.277-1.02.3-1.559.126-2.734-1.855-4.855-4.417-4.855-2.567 0-4.926 2.12-5.297 4.855-.383 2.883 1.566 5.328 4.379 5.328 1.273 0 2.468-.512 3.41-1.344l4.406 3.29-4.82 3.488c-.875-.922-2.035-1.477-3.352-1.477-2.91 0-5.637 2.735-6.113 6.29-.504 3.769 1.684 6.995 4.918 6.995 3.23 0 6-3.226 6.172-6.996a7.318 7.318 0 0 0-.164-1.965l5.922-4.421 5.921 4.421a7.48 7.48 0 0 0-.164 1.965c.172 3.77 2.942 6.996 6.176 6.996 3.235 0 5.422-3.226 4.914-6.996-.476-3.554-3.203-6.289-6.11-6.289Zm14.644-71.562c-1.078-2.742-2.53-5.305-4.14-7.727-.801-1.203-1.715-2.39-2.59-3.476-.434-.512-.856-.914-1.234-1.16-.387-.239-.704-.325-1.149-.29-.43.036-.922.243-1.344.555-.445.32-.78.692-1.132 1.207a6.79 6.79 0 0 0-.586 1.074 19.64 19.64 0 0 0-.758 1.97c-.106.315-.207.636-.317.968a6.279 6.279 0 0 1-.945-3.324c-.242.582-.45 1.171-.637 1.722l-.601 1.813 1.785.687c.539.207 2.45 1.121 4.371 4.149.781 1.23.805 4.722-1.324 10.87.222.708.457 1.415.71 2.11l.79-.36 2.504-1.136 8.363-3.8.402-.184c-.14-.364-.27-.711-.406-1.07-.59-1.56-1.152-3.09-1.762-4.598Zm18.13-9.442c-.2-1.597-.473-3.91-.762-6.726v-.004c-.735-1.031-1.54-1.906-2.399-2.602a8.316 8.316 0 0 0-2.004-1.175c-.082-.032-.156-.082-.238-.114-.184-.07-.367-.14-.559-.191-.52-.164-1.03-.18-1.586-.3-.57-.122-1.18-.274-2.156-.458.04-.262.121-.5.23-.719a33.482 33.482 0 0 0-3.625.922c-.511.16-.827.27-.827.27L274 336.887l4.89 1.601c.11-.277.235-.55.4-.793.241-.36.55-.672.933-.875-.047.82.097 1.461.289 2.078.023.07.047.141.07.215.164.07.344.157.535.25 1.23.61 3.442 1.926 4.426 3.907.09.18.172.375.254.585.324.844.629 2 .898 3.43.336 1.762.621 3.973.828 6.39l.168 1.966 1.825-2.137 1.808-2.113.371-.438c-.004-.035-.004-.07-.007-.11-.04-.378-.114-.753-.176-1.136a24.666 24.666 0 0 0-.657-3.031c-.062-.207-.14-.406-.207-.61-.09-.28-.199-.558-.296-.84a23.67 23.67 0 0 0-1.864-4.113 30.534 30.534 0 0 0-1.398-2.195l.098-.086.175-.156c1.11 1.012 2.055 2.191 2.91 3.441.375.567.711 1.16 1.032 1.762.39.742.746 1.504 1.05 2.285.29.754.536 1.524.743 2.305.058.219.109.437.16.66l.23-.274.325-.378s-.125-.883-.325-2.45Zm-14.36 14.38.223-.098c-.082-.215-.16-.422-.243-.633.008.242.024.488.02.73Zm-25.106 10.761 1.504-.031 1.34-.61a114.34 114.34 0 0 1-.215-2.738c-.297-4.113-.87-8.125-2.058-11.883-.59-1.875-1.352-3.672-2.313-5.336a20.983 20.983 0 0 0-1.754-2.558c-.054-.067-.109-.125-.164-.188-.492-.59-1.011-1.144-1.59-1.605-1.378-1.14-3.046-1.766-4.62-1.656a6.12 6.12 0 0 0-1.653.359 5.55 5.55 0 0 0-.824.371c-.781.445-1.496 1.094-1.985 2.102a2.396 2.396 0 0 1-.054-.329c-.125-1.007.23-2.14.933-2.988.258-.348.582-.64.922-.906-.113.047-.23.09-.34.14l-.543-4.074-2.832 7.086c-.543 1.36-1.043 3.598-1.492 6.66.313 2.012.559 4.004.735 6.004.105 1.188.175 2.375.23 3.563.004.043.004.09.008.133.05 1.148.09 2.3.137 3.453.062 1.707.023 3.43-.305 5.175.945.024 2.094.032 3.336.032.676 0 1.37 0 2.094-.004.69-.004 1.394-.012 2.101-.02l-.2-.605c-1.593-4.863-2.292-8.934-1.917-11.172.07-.41.14-.906.215-1.457.293-2.098.785-5.61 1.87-6.984.54-.684 1.208-1.075 1.829-1.075.96 0 1.332.938 1.465 1.496 1.101 4.555.937 15.262.816 19.657v.09a1213.554 1213.554 0 0 0 3.387-.063l.164-.816a24.27 24.27 0 0 0 .367-4.59c-.02-1.54-.183-3.09-.488-4.617-.281-1.54-.758-3.04-1.332-4.524l.324-.168a18.349 18.349 0 0 1 1.574 3.07c.184.438.356.883.508 1.336a21.41 21.41 0 0 1 .996 4.82 22.6 22.6 0 0 1-.094 4.958Zm-34.656-12.652v-.008a126.155 126.155 0 0 1-1.504-7.774c-.36-2.238-.629-5.316-.8-9.148a169.124 169.124 0 0 1-.156-5.418c-.012-.762-.012-1.215-.012-1.223l-2.036-.425c-.011.19-.015.386-.03.574-.032.437-.079.87-.126 1.304a75.27 75.27 0 0 1-.351 2.707c-.028.18-.043.36-.07.54a65.949 65.949 0 0 0-.348 3.14 131.72 131.72 0 0 0-.258 3.7c-.043.788-.067 1.574-.094 2.363a94.076 94.076 0 0 0-.074 5.039c.02.797.054 1.586.066 2.386.477.344.957.7 1.442 1.055l2.437 1.777c.645.473 1.293.946 1.942 1.415a22.82 22.82 0 0 1-.028-2.004Zm-8.37-63.563c-.122-1.2-.29-2.426-.481-3.668-.754-1.937-1.57-3.805-2.524-5.61a28.383 28.383 0 0 0-1.023-1.765c-.059-.09-.121-.172-.176-.258a31.47 31.47 0 0 0-5.816-6.765 27.49 27.49 0 0 0-2.16-1.711c.386.93.757 1.972 1.113 3.125 1.047 1.336 1.91 2.746 2.734 4.156a56.412 56.412 0 0 1 2.586 5.05c.344.79.672 1.583.984 2.38.375.957.73 1.922 1.04 2.902l-.34.14-.293-.562c-.77-1.472-1.536-2.937-2.383-4.351a83.653 83.653 0 0 0-2.942-4.723c-.054-.082-.113-.164-.171-.25.972 4.8 1.578 11.156 1.945 18.027.347 6.657.472 13.79.484 20.461 0 2.055-.004 4.063-.02 6 0 .13-.003.25-.003.375l1.86.367c1.917-4.8 6.323-17.304 5.843-29.746a59.656 59.656 0 0 0-.258-3.574Zm21.98-35.117-.07.004s-1.802 7.11-.524 10.719c2.422 6.875 7.144 11.953 11.226 12.07l.168.004c1.496 0 2.852-.586 3.914-1.7 1.012-1.054 1.688-2.53 2.137-4.085 1.387 2.18 3.234 3.976 5.567 3.976 3.98 0 6.449-4.957 7.96-8.683a37.61 37.61 0 0 0 1.137-3.22c3.684-12.155-.945-19.71-3.87-23.894-1.247-1.785-3.43-2.742-3.43-2.742l-.047.035a44.05 44.05 0 0 1 1.77 2.922c1.92 3.48 3.362 7.164 3.804 9.793.625 3.762.629 7.93-.86 10.906a25.005 25.005 0 0 1-.879 3.051c-1.003 2.64-2.406 5.121-4.23 7.235l-.184-.141-.105-.082c1.531-2.277 2.726-4.758 3.465-7.36.031-.101.05-.203.078-.3-1.086.898-2.5 1.48-4.32 1.62-4.188.313-5.579-7.632-6.004-14.519-.02-.308-.035-.613-.051-.914a99.76 99.76 0 0 1-.05-8.566 186.46 186.46 0 0 1-.622 8.754c-.02.18-.035.355-.055.535-.433 4.344-1.113 9.043-2.125 11.5-1.511 3.672-6.449 4.726-9.668.297-.93-1.281-1.71-3.024-2.23-5.29a23.034 23.034 0 0 1-.34-1.757 23.212 23.212 0 0 0 1.008 8.61c.02.07.039.14.062.21.903 2.938 2.399 5.696 4.356 8.121l-.274.243c-2.168-2.172-3.84-4.84-5.004-7.715-.039-.094-.09-.188-.128-.282a24.64 24.64 0 0 1-1.586-9.27c.004-.026.004-.058.004-.085Zm-5.61 85.055a113.52 113.52 0 0 0-1.59 2.726c-.925 1.668-1.527 3.504-2.023 5.352-.484 1.87-.856 3.808-1.156 5.808-.168 1.184-.293 2.383-.66 3.59 6.3 4.574 11.906 8.57 12.496 8.77.16.05.562.093 1.136.125-.601-1.594-.949-3.211-1.199-4.84-.355-2.36-.734-4.719-.973-7.09-.257-2.367-.37-4.766-.5-7.098-.046-1.175-.191-2.32-.171-3.496.007-.343.027-.687.046-1.039a13.54 13.54 0 0 1 .422-2.672c.133.125.243.258.36.391a8.08 8.08 0 0 1 1.261 1.855c.063-.574.153-1.136.313-1.73l-.75-.2 1.043-.648c-.438-1.132-1.77-4.586-5.172-4.586-.656 0-1.352.133-2.07.399l-.668.242s-1.07 1.8-1.403 2.348l-.191.328c.887-.555 1.875-.942 2.95-1.043-.54.914-1.032 1.726-1.5 2.508Zm209.09 66.93a263.497 263.497 0 0 0-4.477-8.371l-.328-.583c-.48-.851-.964-1.703-1.46-2.555-.141-.25-.29-.5-.434-.75a220.971 220.971 0 0 0-1.633-2.75c-.84-1.394-1.7-2.78-2.578-4.16a217.56 217.56 0 0 0-1.516-2.347c-.234-.356-.469-.707-.703-1.063a174.403 174.403 0 0 0-4.125-5.933c-1.398-1.922-3.629-4.633-6.582-8.028a438.287 438.287 0 0 0-2.7-3.062 314.138 314.138 0 0 1-5.132 8.25l-.129.199c-4.469 6.91-8.77 12.82-12.664 17.09-.465.512-.922.992-1.375 1.457l59.324 59.32 7.274 4.445s-.438-1.488-1.29-4.117c-2.62-8.086-9.226-27.02-19.472-47.043Zm46.156-390.274a7.974 7.974 0 0 0-5.656-2.344c-2.05 0-4.098.781-5.66 2.344a8.004 8.004 0 0 0 0 11.312 7.976 7.976 0 0 0 5.66 2.344 7.974 7.974 0 0 0 5.656-2.344 7.997 7.997 0 0 0 0-11.312Zm6.684 17.996c-3.227 3.227-7.406 4.906-11.629 5.078-.238.008-.477.031-.711.031-.613 0-1.223-.039-1.832-.101a17.406 17.406 0 0 1-2.32-.418c-3-.73-5.844-2.25-8.188-4.59a17.365 17.365 0 0 1-4.594-8.191 17.395 17.395 0 0 1-.414-2.32 17.273 17.273 0 0 1-.07-2.544c.172-4.222 1.852-8.398 5.078-11.625a17.393 17.393 0 0 1 12.34-5.11c4.465 0 8.93 1.704 12.34 5.11 6.812 6.817 6.812 17.864 0 24.68Zm-32.563-5.223c-6.289 5.676-17.578 15.825-27.59 24.617a165.322 165.322 0 0 1 4.56 3.801 284.735 284.735 0 0 1 4.87 4.32 466.102 466.102 0 0 1 4.774 4.419l2.351 2.246.36.34c1.441-1.641 2.914-3.31 4.398-4.981l-.18-.187-2.043-2.106a319.525 319.525 0 0 1-4.015-4.285 219.193 219.193 0 0 1-3.922-4.379c-1.281-1.488-2.563-2.977-3.777-4.527a.274.274 0 0 1 .05-.387.276.276 0 0 1 .336-.004c1.563 1.2 3.063 2.465 4.563 3.73a232.273 232.273 0 0 1 4.422 3.876 349.554 349.554 0 0 1 4.324 3.972l2.129 2.024.07.066c1.488-1.68 2.973-3.344 4.43-4.973l-1.742-1.804c-1.2-1.27-2.391-2.543-3.567-3.84a176.002 176.002 0 0 1-3.473-3.938c-1.128-1.34-2.261-2.675-3.324-4.082a.275.275 0 0 1 .383-.386c1.414 1.05 2.766 2.168 4.117 3.285 1.34 1.125 2.664 2.27 3.973 3.43a276.72 276.72 0 0 1 3.875 3.53l1.71 1.618c1.548-1.73 3.04-3.399 4.454-4.973l-1.277-1.336a184.575 184.575 0 0 1-3.121-3.394 136.256 136.256 0 0 1-3.02-3.492c-.98-1.192-1.965-2.38-2.879-3.637a.279.279 0 0 1 .387-.39c1.262.905 2.465 1.874 3.664 2.843 1.191.977 2.367 1.973 3.523 2.984a214.1 214.1 0 0 1 3.426 3.086l1.242 1.168c1.739-1.933 3.317-3.683 4.64-5.152a21.295 21.295 0 0 1-8.046-5.05 21.35 21.35 0 0 1-5.055-8.052ZM402.02 357.633c8.273-14.445 16.335-30.25 21.75-41.207a26.655 26.655 0 0 0-1.325-26.035c-12.918-20.516-37.86-64.047-47.73-108.246-.172-.774-.352-1.547-.516-2.32-.168-.794-.316-1.587-.472-2.38-1.528-7.699-2.586-15.398-2.997-22.976a165.171 165.171 0 0 0-2.136-18.906c-2.117-12.399-5.621-24.649-10.34-36.329-.27-.671-.54-1.343-.82-2.007-.278-.665-.563-1.32-.844-1.977-19.617-45.324-57.703-81.031-104.238-81.031-38.997 0-84.524 36.797-108.454 83.094-.32.624-.632 1.25-.945 1.878-.316.63-.633 1.258-.937 1.891-5.426 11.164-9.578 22.828-12.078 34.617-1.32 6.238-2.188 12.516-2.524 18.77-.406 7.508-1.45 15.133-2.953 22.765-.156.793-.305 1.586-.473 2.383-.16.774-.343 1.547-.515 2.32-9.836 44.27-34.836 87.907-47.778 108.454a26.675 26.675 0 0 0-1.324 26.035c5.438 11 13.543 26.883 21.848 41.375l1.039 1.804c.351.61.707 1.211 1.058 1.813 6.368 10.871 12.735 20.621 17.996 26.426.825.91 1.622 1.722 2.387 2.43 3.86 3.55 12.422 9.328 23.403 16.163.582.364 1.168.727 1.765 1.094.582.364 1.164.723 1.758 1.086 37.805 23.238 99.387 56.707 103.336 58.852v.117l.11-.059c.07.036.109.059.109.059v-.117c3.957-2.149 65.699-35.703 103.492-58.942l1.758-1.086c.593-.37 1.183-.734 1.765-1.097 10.903-6.797 19.407-12.535 23.25-16.07a39.843 39.843 0 0 0 2.504-2.563c5.27-5.848 11.625-15.602 17.977-26.461.351-.602.703-1.203 1.054-1.813.348-.597.696-1.199 1.04-1.804Zm5.117 11.484c-6.375 10.684-12.598 19.914-17.965 25.817a52.766 52.766 0 0 1-1.926 2.004l-.035.035c-.285.285-.57.558-.852.816-.964.887-2.175 1.89-3.609 2.992a134.778 134.778 0 0 1-4.922 3.602c-.86.597-1.746 1.215-2.683 1.851a353.256 353.256 0 0 1-7.223 4.766c-.242.156-.496.316-.738.473l-.512.328-.805.512c-.387.25-.785.5-1.18.75l-.675.43h-.004c-.578.366-1.168.734-1.762 1.105-.578.363-1.164.73-1.758 1.097a697.683 697.683 0 0 1-3.96 2.45c-1.5.921-3.036 1.855-4.598 2.8-.977.594-1.965 1.192-2.965 1.793-.602.36-1.203.723-1.813 1.086a1271.851 1271.851 0 0 1-9.02 5.352c-1.695.996-3.402 1.996-5.12 3a2683.418 2683.418 0 0 1-5.192 3.02l-2.61 1.507a2285.49 2285.49 0 0 1-15.694 8.977c-1.73.98-3.45 1.957-5.16 2.922-1.708.96-3.403 1.918-5.079 2.859-2.515 1.414-4.992 2.8-7.414 4.152-1.613.903-3.203 1.79-4.761 2.657-1.282.714-2.54 1.41-3.778 2.101-.539.297-1.07.594-1.601.887l-3.598 1.992a2330.54 2330.54 0 0 1-8.066 4.445l-3.625 1.993a3353.75 3353.75 0 0 1-6.914 3.78c-.497.27-.97.532-1.426.782-1.031.559-1.977 1.074-2.809 1.523a10.224 10.224 0 0 1-6.105 2.027h-.216a10.163 10.163 0 0 1-5.21-1.43 9.437 9.437 0 0 1-.899-.597 3691.506 3691.506 0 0 1-16.695-9.136 3407.516 3407.516 0 0 1-34.95-19.492 2288.35 2288.35 0 0 1-7.8-4.434 2051.62 2051.62 0 0 1-10.48-6.012c-.871-.504-1.743-1.004-2.614-1.508-1.734-1.007-3.464-2.011-5.187-3.015-9.742-5.688-19.117-11.281-27.324-16.387-.594-.367-1.18-.734-1.758-1.098-.465-.289-.918-.574-1.371-.859-.13-.082-.266-.164-.395-.246-.91-.574-1.8-1.14-2.68-1.703-.683-.438-1.355-.867-2.015-1.293-7.629-4.93-13.656-9.16-17.14-12.207a60.57 60.57 0 0 1-.665-.594 45.894 45.894 0 0 1-2.562-2.582l-.11-.121a.086.086 0 0 0-.015-.02c-4.422-4.828-9.43-11.941-14.625-20.273a364.574 364.574 0 0 1-1.887-3.059 404.53 404.53 0 0 1-1.477-2.449l-1.07-1.8c-.351-.598-.707-1.196-1.058-1.801a464.641 464.641 0 0 1-3.18-5.532 598.348 598.348 0 0 1-3.094-5.543 669.253 669.253 0 0 1-4.594-8.484 820.891 820.891 0 0 1-5.949-11.379 1060.457 1060.457 0 0 1-5.273-10.426c-.563-1.132-1.121-2.254-1.672-3.367-3.18-6.43-4.348-13.61-3.555-20.578.266-2.324.75-4.621 1.45-6.863a36.206 36.206 0 0 1 3.945-8.567 424.134 424.134 0 0 0 6.11-10.007 448.792 448.792 0 0 0 16.027-29.508 390.227 390.227 0 0 0 5.253-11.024c.864-1.883 1.711-3.8 2.555-5.734a344.034 344.034 0 0 0 3.246-7.656c.797-1.946 1.57-3.918 2.336-5.899a304.97 304.97 0 0 0 1.918-5.101c4.379-11.985 8.055-24.438 10.344-36.793.152-.813.277-1.618.414-2.426.14-.813.289-1.625.418-2.438.219-1.425.414-2.851.594-4.273.003-.016.003-.027.007-.04.434-3.398.754-6.78.938-10.128a128.62 128.62 0 0 1 1.394-13.133 140.578 140.578 0 0 1 2.836-13.578c.258-1 .524-2 .805-3a160.274 160.274 0 0 1 5.254-15.543c.133-.34.258-.676.394-1.016a176.497 176.497 0 0 1 5.902-13.082c.177-.351.364-.703.544-1.058.316-.621.636-1.246.96-1.867.321-.614.653-1.227.985-1.84 5.422-10.067 11.899-19.852 19.328-29.11a196.442 196.442 0 0 1 7.746-9.074 185.687 185.687 0 0 1 8.621-8.887 178.707 178.707 0 0 1 11.711-10.386 162.85 162.85 0 0 1 8.067-6.133 149.64 149.64 0 0 1 8.21-5.465 147.436 147.436 0 0 1 5.524-3.242c15.117-8.399 29.914-12.914 44.04-13.445a75.584 75.584 0 0 1 2.816-.055 99.72 99.72 0 0 1 15.691 1.242c3.105.492 6.187 1.133 9.242 1.914 10.184 2.61 20.059 6.813 29.45 12.512a122.65 122.65 0 0 1 11.023 7.55c5.379 4.13 10.562 8.782 15.504 13.938a154.35 154.35 0 0 1 9.547 10.985 161.32 161.32 0 0 1 3.55 4.671 163.024 163.024 0 0 1 3.094 4.368c.852 1.246 1.688 2.5 2.512 3.77a187.7 187.7 0 0 1 2.457 3.898 188.865 188.865 0 0 1 3.453 5.921 184.03 184.03 0 0 1 6.254 12.301c.074.168.148.34.226.508.297.648.59 1.297.88 1.945.288.657.574 1.313.859 1.97.152.355.297.714.449 1.07.223.523.445 1.042.664 1.57.344.828.684 1.66 1.016 2.496a188.508 188.508 0 0 1 2.437 6.512 186.462 186.462 0 0 1 6.61 23.41c.02.093.035.183.054.277a178.435 178.435 0 0 1 2.426 14.23 174.599 174.599 0 0 1 1.18 12.856c.004.082.011.164.02.246.265 4.758.796 9.57 1.558 14.414.129.813.273 1.625.414 2.438.14.804.27 1.613.422 2.418 1.437 7.714 3.422 15.46 5.77 23.109.429 1.394.863 2.785 1.316 4.172a280.944 280.944 0 0 0 2.754 8.02 293.024 293.024 0 0 0 2.87 7.671 313.599 313.599 0 0 0 2.634 6.504 350.627 350.627 0 0 0 3.039 7.113 396.727 396.727 0 0 0 7.992 16.957 430.263 430.263 0 0 0 5.996 11.551 446.934 446.934 0 0 0 9.265 16.406c2.27 3.836 4.34 7.2 6.11 10.008a36.848 36.848 0 0 1 2.262 4.172 37.24 37.24 0 0 1 3.324 13.586c.316 6.227-.922 12.535-3.75 18.25-7.028 14.211-15.41 30.414-23.66 44.563-.352.605-.707 1.203-1.059 1.8-.355.606-.71 1.204-1.07 1.801ZM321.68 191.75c-.395-.895-2.446-2.148-4.996-3.105a17.064 17.064 0 0 0-3.281-1.484c-3.286-1.071-6.813-1.071-10.087-.349-3.285.727-6.351 2.11-9.183 3.778-2.824 1.703-5.445 3.656-7.996 5.68l.21.296c2.743-1.75 5.454-3.55 8.325-5.007 2.84-1.496 5.844-2.664 8.953-3.196a22.009 22.009 0 0 1 3.465-.34c-3.223 1.782-5.723 6.227-11.559 7.477-7.293 1.563-14.375 6.46-17.605 10.836-3.23 4.375-11.25 5.101-11.25 5.101-.13 1.989.27 3.739.781 5.11l.102.61a15.997 15.997 0 0 0 1.507 4.19c.153.29.317.571.485.848a15.348 15.348 0 0 0 2.101 2.72c.86.855 1.805 1.616 2.832 2.226.215.125.426.254.649.367l.199-.309c-1.07-.902-2.043-1.89-2.836-3.008a17.115 17.115 0 0 1-2.016-3.562c.165.113.32.238.493.344.812.492 1.722.96 2.683 1.406.246.324.496.648.762.96a23.83 23.83 0 0 0 3.234 3.169c.274.222.551.445.836.656 1.508 1.082 3.117 2.027 4.832 2.691l.16-.328c-1.539-.949-2.992-2-4.285-3.222-.234-.215-.441-.453-.668-.676a27.034 27.034 0 0 1-1.812-1.973c.957.364 1.906.688 2.816.973 1.434.45 2.762.797 3.813 1.012 3.75.765 12.394-.036 16.77-.45 2.148-.207 4.84-.738 7.265-1.496a26.182 26.182 0 0 1-5.211 4.278c-1.95 1.261-4.09 2.23-6.328 2.949l.086.355c2.36-.406 4.648-1.242 6.797-2.343a27.56 27.56 0 0 0 5.894-4.246c.762-.723 1.473-1.5 2.145-2.313 1.023-.512 1.86-1.07 2.375-1.664 1.98-2.293 5.52-6.668 7.918-13.336 2.394-6.664 1.351-13.957.625-15.625Zm-82.227 19.828c.43-1.164.84-2.738.84-4.473 0-2.292-.719-4.304-1.238-5.46-.293-.653-.524-1.032-.524-1.032s-.324.543-.695 1.446c-.492 1.187-1.063 3.007-1.063 5.046 0 2.516.868 4.696 1.383 5.774.219.457.375.719.375.719s.473-.778.922-2.02Zm106.184-10.46a32.41 32.41 0 0 1 .035 4.609 31.772 31.772 0 0 1-.355 3.219 31.515 31.515 0 0 1-.797 3.64 30.041 30.041 0 0 1-.551 1.742c-.727 2.207-1.735 4.32-2.93 6.344l.3.207c1.485-1.86 2.688-3.953 3.665-6.149.219-.511.422-1.035.613-1.558-.18 2.644-.48 5.637-1.332 9.05-.433 1.723-.906 2.91-1.414 3.747l-.27.207c-1.788 1.32-3.976 2.176-6.21 3.312-.43.215-.871.453-1.309.692a25.64 25.64 0 0 0-1.98 1.195c-.418.285-.829.594-1.227.918-.11.09-.21.187-.32.281l-1.465-1.18c.312-.628.64-1.226.98-1.789a215.02 215.02 0 0 0-.175-5.238c-.016-.398-.036-.804-.055-1.207-8.059 6.719-21.836 16.035-36.25 16.035-4.016 0-7.899-.718-11.535-2.14-.692-.274-1.41-.563-2.149-.864-1.71-.703-3.41-1.441-5.047-2.195a115.173 115.173 0 0 1-3.242-1.55 109.5 109.5 0 0 1-2.46-1.25c-2.747-1.45-5.25-2.915-7.434-4.36a33.748 33.748 0 0 0-9.676-4.387l-2.606-.719-2.699-.3a34.479 34.479 0 0 0-10.547.441 35.314 35.314 0 0 0-3.449.86l-.16.054c-1.77.559-3.348 1.293-4.527 1.875-.621.309-1.235.621-1.844.934-1.867.953-3.797 1.937-5.903 2.691-1.062.38-1.964.649-2.832.84-10.98 2.422-19.77 3.55-27.652 3.55a76.5 76.5 0 0 1-10.633-.722l-.035.106a127.362 127.362 0 0 0-1.383 4.227 88.363 88.363 0 0 0-1.449 5.167c3.973 3.594 11.938 10.781 17.024 15.207.535.465 1.035.899 1.5 1.297.574.492 1.09.93 1.523 1.285 2.79 2.313 5.93 7.746 8.621 14.914l-1.55 1.028c-.11-.11-.212-.22-.321-.325-.246-.234-.488-.472-.742-.699a24.108 24.108 0 0 0-2.485-1.957 24.984 24.984 0 0 0-6.214-3.117c-1.543-1.23-3.204-1.715-4.938-1.887-.902-.09-1.82-.101-2.758-.094-.93.012-1.879.043-2.836.032-.992-.008-1.996-.063-3.004-.227-5.703-.93-10.015-.562-14.043-2.187-1.378-.555-2.726-1.344-4.082-2.5a14.052 14.052 0 0 1-1.484-1.489c-4.144-4.742-5.39-12.296-2.578-19.605.418-1.09.684-2.11.84-3.09.039.074.082.152.12.227 1.485 2.675 1.313 5.867 1.161 9.074-.059 1.61-.043 3.27.25 4.894.262 1.47.82 2.918 1.754 4.094.094.121.176.258.277.371l.282-.23c-.137-.192-.247-.395-.364-.594-.676-1.14-1.043-2.438-1.187-3.75-.172-1.559-.059-3.129.097-4.715.141-1.59.32-3.21.274-4.879-.028-1.656-.403-3.414-1.117-4.937-.434-.992-.953-1.906-1.434-2.805-.285-3.418-1.742-6.566-2.851-10.523a23.308 23.308 0 0 1 .054-2.22c.035-.765.024-1.515-.347-2.366.27.437.53.879.8 1.316 1.39 2.246 2.961 4.399 5.172 6.176-.203-1.5-.582-2.895-1.062-4.234a35.84 35.84 0 0 0-1.446-3.403c-.175-.355-.347-.715-.52-1.074a332.504 332.504 0 0 0-1.921-3.93c.133-.14.27-.293.402-.437.45-.485.903-.98 1.36-1.489 6.195-6.863 13.28-15.796 20.328-26.96.09-.149.183-.293.277-.442.028-.043.055-.086.082-.125a17.278 17.278 0 0 0-1.754 5.047 4 4 0 0 0-.332.625c-.265.68-.511 1.363-.726 2.059a26.466 26.466 0 0 0-.938 4.25c-.375 2.875-.285 5.812.32 8.64a26.135 26.135 0 0 0 3.196 7.973 25.85 25.85 0 0 0 3.363 4.273c.719.739 1.465 1.446 2.274 2.078l.242-.277a27.606 27.606 0 0 1-2.227-2.508c-1.023-1.293-1.937-2.66-2.687-4.117a24.79 24.79 0 0 1-2.61-7.715 25.473 25.473 0 0 1-.011-8.078c.046-.305.12-.605.18-.91.113.57.253 1.152.429 1.738 1.742 5.77 3.387 10.727 6.578 14.602 2.258 2.738 5.277 4.941 9.676 6.496 6.254 2.207 13.691 1.922 19.687 1.41l.672-.059c-.144.098-.297.188-.445.286a25.02 25.02 0 0 1-2.91 1.648c-1.227.61-2.528 1.07-3.864 1.48l.063.36c1.422-.086 2.828-.395 4.207-.805a20.343 20.343 0 0 0 3.625-1.562c.11-.063.227-.11.34-.172a21.44 21.44 0 0 0 2.297-1.543c1.418-.137 2.675-.246 3.718-.285a45.27 45.27 0 0 1-2.968 1.918c-.735.433-1.489.836-2.246 1.222a40.034 40.034 0 0 1-4.813 2.07c-2.45.907-4.996 1.544-7.594 1.981l.036.348.003.015c2.657-.113 5.305-.586 7.891-1.285.215-.058.422-.14.633-.207a41.242 41.242 0 0 0 4.926-1.836 43.571 43.571 0 0 0 1.925-.925 38.967 38.967 0 0 0 5.368-3.383c4.578-.93 11.011-7.868 11.011-7.868s-6.093.782-12.656-6.093c-6.562-6.875-11.406-14.375-17.969-14.688-2.324-.11-5.66-1.375-9.054-2.976-3.813-1.801-7.696-4.024-10.286-5.52.243.043.489.07.727.113 1.781.325 3.54.754 5.277 1.282a49.675 49.675 0 0 1 5.125 1.87l.293.134c1.586.671 3.125 1.453 4.653 2.285l.199-.301.004-.004c-1.36-1.09-2.828-2.039-4.336-2.922-.11-.062-.215-.129-.32-.191-.649-.36-1.32-.692-1.989-1.016a37.372 37.372 0 0 0-3.117-1.355 39.793 39.793 0 0 0-5.414-1.621 51.35 51.35 0 0 0-2.785-.512c-.629-.024-1.246-.27-1.883-.168a345.05 345.05 0 0 1 4.258-6.418 320.623 320.623 0 0 1 11.73-16.2c.414-.538.832-1.073 1.246-1.605.415-.527.833-1.054 1.247-1.578 8.25-10.36 16.656-19.441 25.093-27.098 1.23 1.41 1.52.985 1.52.985 3.695 1.644 6.887 3.98 9.508 6.375 3.812 3.488 9.422 4.012 13.988 1.594 1.918-1.012 4.05-1.899 6.016-2.825a33.747 33.747 0 0 0-.985 3.188c-.82 3.215-1.133 6.543-1.078 9.84a24.245 24.245 0 0 0 .473 4.347c.156.739.367 1.465.61 2.18l-.4-.008.005-.117-.524-.078c-6.281-.984-13.398-4.82-19.117-7.902-2.441-1.317-5.399-2.907-6.758-3.329-1.039 1.555-3.234 4.762-6.09 8.93-2.707 3.95-5.968 8.711-9.27 13.567a13.671 13.671 0 0 1 1.43 1.953c.305.523.516.968.653 1.406.11.355.578 1.687 1.898 3.953 1.758 3.027 5.711 8.867 12.446 14.04 2.308 1.773 3.992 3.894 5.007 6.308.797 1.89 1.18 3.972 1.137 6.14.54-.187 1.098-.39 1.664-.617.332-.129.688-.234 1.043-.34a17.576 17.576 0 0 1 2.785-.554 26.87 26.87 0 0 1 2.864-.196h.417c.833 0 1.743.032 2.778.098l.406.023c-.176.672-.351 1.336-.531 1.973a61.1 61.1 0 0 1-.606 1.973 27.05 27.05 0 0 1-.852 2.34c-.335.796-.675 1.433-1.003 1.851-.191.242-.375.41-.559.496-1.707.785-3.593 3.258-4.82 5.082-.797 1.188-1.316 2.106-1.316 2.106s.558.25 1.37.664c.532.273 1.165.617 1.837 1.023 1.515.906 3.183 2.106 4.14 3.399.29.386.52.785.653 1.183.011.031.02.067.03.102.099.297.231.558.376.808 1.195 2.024 3.902 2.418 5.613 1.079a3.716 3.716 0 0 0 1.203-1.657.174.174 0 0 1 .02-.05c.601-1.622 1.21-3.008 1.777-3.915.246-.398.488-.714.715-.906.227-.187.473-.355.73-.508a8.387 8.387 0 0 1 1.97-.851c2.296-.692 4.644-.586 4.644-.586s-2.004-3.871-4.434-6.082c-1.781-1.621-4.105-1.508-4.43-2.567a57.655 57.655 0 0 1-.543-1.898v-.004c-.03-.11-.054-.223-.085-.332a88.758 88.758 0 0 1-.489-1.95c-.011-.05-.02-.105-.035-.155a90.863 90.863 0 0 1-.445-2.047l.734.066.172.027c.844.125 1.68.258 2.508.395 1.418.234 2.797.48 4.098.715 1.949.347 3.789.68 5.238.875.16.02.328.031.496.031 2.969 0 7.293-3.129 12.77-7.086 5.046-3.648 11.328-8.187 19.007-12.012 2.336-1.164 4.762-1.89 7.235-2.171l-23.23-32.415c-3.462 1.391-12.438 4.891-20.915 7.31-1.05.3-2.215.448-3.465.448h-.054l.046.211-.367-.054c.047-.727.09-1.446.13-2.157.034-.675.073-1.336.108-2 .043-.828.083-1.664.137-2.488.203-3.059.79-6.062 1.563-9a54.55 54.55 0 0 1 2.468-7.172c4.653-4.234 3.832-7.398 6.739-8.164.246-.066.535-.156.836-.262-.211.461-.434.922-.64 1.391a68.031 68.031 0 0 0-2.255 6.004c-.648 2.035-1.164 4.117-1.601 6.207-.383 2.105-.63 4.234-.668 6.363l.363.031c.367-2.078.781-4.128 1.387-6.136.574-2.012 1.226-4 2.007-5.942a93.486 93.486 0 0 1 2.48-5.754 72.06 72.06 0 0 1 1.38-2.812l.25-.469a45.094 45.094 0 0 0 4.293-2.289c9.43 7.207 18.89 16.274 28.199 26.984a256.93 256.93 0 0 1 2.617 3.06c6.848 8.132 13.602 17.151 20.192 26.98a358.533 358.533 0 0 1 4.52 6.91 894.47 894.47 0 0 1 1.628 2.566 193.919 193.919 0 0 0 3.23 4.984 202.638 202.638 0 0 0 2.66 3.887l-.898 2.73-.73 2.231c-.742 2.2-1.352 4.445-1.371 7.008 1.507-1.316 2.59-2.852 3.476-4.477a52.7 52.7 0 0 1 .043 3.352 57.748 57.748 0 0 1-.289 4.707c-.039.422-.101.84-.152 1.258a71.21 71.21 0 0 1-.485 3.347.921.921 0 0 0-.015.11l.351.094c.11-.282.207-.567.309-.852.43-1.234.777-2.5 1.09-3.773.015-.075.027-.153.043-.227a39 39 0 0 0 .734-4.57c.16-1.614.219-3.242.188-4.867a56.084 56.084 0 0 0-.11-2.141c.031-.074.063-.149.098-.223.137.055.285.086.445.094a194.02 194.02 0 0 0 2.438 3.242Zm-7.555 45.855c-.363-2.172-.902-4.266-1.422-6.227-.644-2.43-1.242-4.64-1.406-6.496a17.5 17.5 0 0 0-2.125 1.45c-.266.214-.543.421-.785.655-.797.739-1.41 1.598-2.024 2.465a21.41 21.41 0 0 0-.515.797c-.125.196-.25.395-.375.606-.27.507-.551 1.054-.844 1.714-.61-.804-.844-1.82-.816-2.832-.02.032-.04.06-.06.094l-.05.09a30.102 30.102 0 0 0-.898 1.832l-1.266 2.816h4.39c.54 1.434 1.372 4.075 1.47 6.985-4.547 4.414-8.508 7.746-11.782 9.914l-.84.559a623.203 623.203 0 0 0-5.816 3.878c-.578.391-1.14.774-1.691 1.153-.579.402-1.149.797-1.704 1.187a125.469 125.469 0 0 0-4.238 3.133l.953 1.695a7.92 7.92 0 0 1 .274-.113 18.24 18.24 0 0 1 4.855-1.11c.395-.038.79-.07 1.18-.085a34.658 34.658 0 0 1 2.851.008c.555.02 1.106.043 1.649.07.426.02.851.035 1.277.05 3.516.11 6.906-.144 10.645-3.1 9.691-7.657 9.535-7.5 9.535-16.563 0-1.563-.172-3.11-.422-4.625Zm-53.941 46.418-1.7-.754c-11.543 15.226-1.394 34.238 2.332 40.175.207-.167.426-.316.66-.43.391-.19.801-.288 1.22-.343a8.13 8.13 0 0 1 1.343-.031c.371.023.742.078 1.106.156a8.034 8.034 0 0 1 3.086 1.399c-.883-10.356-1.57-24.325-.387-36 .383-3.758.957-7.282 1.785-10.364a33.584 33.584 0 0 0-3.98 8.168 32.844 32.844 0 0 0-.688 2.29c-.54 1.968-.852 4-1.04 6.058l-.362-.004c-.149-2.09 0-4.2.312-6.285a32.31 32.31 0 0 1 .688-3.149c.277-1.004.601-1.996.976-2.968a31.752 31.752 0 0 1 2.266-4.668c.203-.344.402-.684.613-1.02l.902-1.32.325-.422.086-.121-.094-.082a33.682 33.682 0 0 0-2.258 2.441l-.059.082a30.585 30.585 0 0 0-1.562 2.055c-1.004 1.441-1.832 2.984-2.672 4.547-.086.152-.168.304-.25.457-.95 1.719-1.805 3.492-2.879 5.347-.043-.253-.058-.507-.086-.757-.125-1.344-.035-2.688.211-4.004.027-.153.07-.301.106-.453ZM94.09 381.598l-.117-.188a296.611 296.611 0 0 1-5.649-9.023c-4.242 4.77-7.355 8.48-9.133 10.922-6.53 8.98-12.265 18.785-17.171 28.351-.02.043-.043.086-.063.13-5.7 11.128-10.273 21.925-13.664 30.714-.094.25-.188.492-.281.738a337.202 337.202 0 0 0-2.188 5.863c-.187.52-.37 1.028-.547 1.528a235.808 235.808 0 0 0-1.629 4.672 184.185 184.185 0 0 0-.836 2.496c-.124.379-.234.722-.347 1.062-.035.117-.078.246-.113.356-.075.219-.141.43-.204.633-.128.402-.246.765-.347 1.097-.414 1.317-.621 2.031-.621 2.031s.715-.207 2.03-.62c.33-.102.696-.22 1.099-.348.3-.098.644-.207.984-.32l62.352-62.348a56.464 56.464 0 0 1-1.38-1.453c-3.75-4.086-7.878-9.715-12.175-16.293ZM423.938 79.55a520.524 520.524 0 0 1 5.671 5.308l2.801 2.688 1.098 1.055c1.25-1.5 2.695-3.2 4.285-5.055l-.805-.824-2.492-2.551a472.074 472.074 0 0 1-4.914-5.176 325.042 325.042 0 0 1-4.82-5.27 278.728 278.728 0 0 1-3.45-3.968 434.645 434.645 0 0 1-6.597 5.59c1.16.992 2.308 1.992 3.457 2.996a402.907 402.907 0 0 1 5.765 5.207ZM99.702 102.64l-2.828 2.828 20.719 20.715c.191-.746.383-1.493.586-2.239 2.78-10.11 6.652-20.207 11.52-30.078l.105-.215a207.557 207.557 0 0 1 1.558-3.086l-9.86-9.726Zm-23.57-21.399a561.087 561.087 0 0 1-5.363 5.617l-2.715 2.778-1.262 1.285c.324.398.621.773.894 1.117a88.734 88.734 0 0 0 3.786 4.523L90.8 77.239a86.641 86.641 0 0 0-4.524-3.789 100.91 100.91 0 0 1-1.773-1.43 336.529 336.529 0 0 1-3.102 3.508 384.958 384.958 0 0 1-5.27 5.715Zm-7.317-6.246a512.441 512.441 0 0 1-4.914 5.176l-2.492 2.55-.808.825a451.201 451.201 0 0 1 4.285 5.055l1.097-1.055 2.805-2.688a558.757 558.757 0 0 1 5.668-5.308 383.122 383.122 0 0 1 5.77-5.207 421.465 421.465 0 0 1 3.453-2.996 434.64 434.64 0 0 1-6.598-5.59 278.728 278.728 0 0 1-3.45 3.969 324.815 324.815 0 0 1-4.816 5.27ZM430.711 92.04c.27-.344.57-.719.89-1.117l-1.257-1.285-2.715-2.778a517.66 517.66 0 0 1-5.367-5.617 384.704 384.704 0 0 1-5.266-5.715 336.517 336.517 0 0 1-3.101-3.507 116.72 116.72 0 0 1-1.778 1.43 86.407 86.407 0 0 0-4.52 3.788l19.325 19.325a88.626 88.626 0 0 0 3.789-4.524Zm-357.89 8.832-1.407 1.406-26.39 26.395 11.496 11.496 12.921-12.926 26.02-26.02 23.191-23.187 1.414-1.418 1.414-1.414 12.926-12.922-11.496-11.496-29.219 29.219-19.453 19.45Zm296.324-12.387a192.328 192.328 0 0 1 6.851 17.973c.008.027.02.055.027.082a190.68 190.68 0 0 1 4.657 16.941c.172.774.336 1.551.5 2.325l20.34-20.336-2.829-2.828-21.796-21.801c-2.223 2.191-4.813 4.746-7.75 7.644ZM61.496 68.75a364.892 364.892 0 0 1-4.465 4.73l-2.265 2.329-.47.48c1.513 1.727 2.977 3.406 4.36 5.004l.688-.66 2.574-2.465a471.77 471.77 0 0 1 5.223-4.863 325.477 325.477 0 0 1 5.32-4.766 252.15 252.15 0 0 1 3.95-3.363 931.694 931.694 0 0 1-6.665-5.805c-1.262 1.55-2.57 3.055-3.879 4.555a268.818 268.818 0 0 1-4.37 4.824Zm120.856 113.008c-.278.43-.555.867-.832 1.3.343-.453.68-.835.988-1.136-.055-.047-.106-.11-.156-.164Zm-26.36 37.183c.024.207.059.399.086.602l.676.113c-.281-.46-.559-.918-.836-1.375.023.215.047.43.074.66Zm50.688 118.493c.144-1.258.351-2.508.617-3.743l-1.914-4.64-1.848.351c0 .137 0 .278-.004.41a912.43 912.43 0 0 1-.07 5.067c-.11 6.172-.254 10.898-.281 12.844-.008.476-.008.793.004.91 0 0 .41.305 1.113.82.433.324.973.723 1.625 1.2.414.308.883.648 1.371 1.007a43.771 43.771 0 0 1-.36-2 40.493 40.493 0 0 1-.324-2.476c-.011-.118-.027-.235-.039-.356a55.983 55.983 0 0 1-.144-2.293 56.23 56.23 0 0 1-.04-2.566c.005-.66.016-1.32.052-1.98.058-.856.14-1.708.242-2.555Zm1.851 1.5c.04-.422.082-.844.133-1.27l.063-.516-1.059-2.558c-.106 1.644-.172 3.289-.129 4.926.004.164 0 .328.008.492a47.64 47.64 0 0 0 .176 3.254c.074.851.175 1.695.297 2.539l.023.183c.031.215.059.438.094.653.082.523.191 1.039.289 1.558.3 1.66.652 3.305 1.117 4.918.023.09.055.172.082.262.207.152.41.3.621.457a40.055 40.055 0 0 1-.215-7.21c.008-.122.008-.247.016-.368.004-.016.004-.031.004-.047.015-.164.035-.324.047-.484.066-.743.152-1.485.261-2.22.086-.57.18-1.136.286-1.698l-1.258-3.051ZM378.328 76.617l1.414 1.418 23.192 23.188 38.945 38.945 11.496-11.496-29.219-29.219-19.453-19.45-1.418-1.417-1.402-1.406-26.395-26.395-11.496 11.496Zm-351.23-55.07a7.958 7.958 0 0 0-5.657-2.344 7.983 7.983 0 0 0-5.66 2.344 7.997 7.997 0 0 0 0 11.312 7.983 7.983 0 0 0 5.66 2.344 7.974 7.974 0 0 0 5.657-2.344 7.997 7.997 0 0 0 0-11.312Zm6.683 17.996a17.325 17.325 0 0 1-8.191 4.59c-.766.187-1.54.336-2.32.418-.61.062-1.22.101-1.829.101-.238 0-.476-.023-.71-.03-4.227-.173-8.403-1.852-11.63-5.079-6.816-6.816-6.816-17.863 0-24.68a17.393 17.393 0 0 1 12.34-5.11c4.465 0 8.93 1.704 12.34 5.11 3.223 3.227 4.903 7.403 5.074 11.625.036.848.02 1.7-.066 2.543-.082.782-.23 1.555-.418 2.32-.73 3-2.25 5.848-4.59 8.192Zm397.473 33.762a439.26 439.26 0 0 1 5.223 4.863l2.578 2.465.687.66c1.383-1.598 2.848-3.277 4.36-5.004l-.47-.48-2.269-2.329a364.892 364.892 0 0 1-4.465-4.73 302.09 302.09 0 0 1-4.37-4.824c-1.31-1.5-2.614-3.004-3.876-4.555-2.328 2.043-4.57 3.996-6.664 5.805 1.328 1.11 2.645 2.23 3.95 3.363 1.789 1.57 3.562 3.16 5.316 4.766ZM41.312 58.098l-1.71 1.617a2756.34 2756.34 0 0 0-4.457-4.973l1.28-1.336a171.535 171.535 0 0 0 3.118-3.394 144.583 144.583 0 0 0 3.023-3.492c.98-1.192 1.961-2.38 2.875-3.637a.276.276 0 0 0 .004-.324.28.28 0 0 0-.386-.067c-1.266.906-2.465 1.875-3.668 2.844a151.146 151.146 0 0 0-3.524 2.984 214.1 214.1 0 0 0-3.426 3.086L33.2 52.574a2520.075 2520.075 0 0 0-4.64-5.152 21.34 21.34 0 0 0 8.05-5.05c2.305-2.31 4-5.06 5.051-8.052 6.29 5.676 17.582 15.825 27.59 24.617-1.55 1.235-3.055 2.516-4.559 3.801a284.473 284.473 0 0 0-4.867 4.32 428.523 428.523 0 0 0-4.773 4.419l-2.356 2.246-.355.34c-1.445-1.641-2.918-3.31-4.399-4.981l.18-.187 2.043-2.106a347.013 347.013 0 0 0 4.016-4.285 219 219 0 0 0 3.918-4.379c1.28-1.488 2.562-2.977 3.777-4.527a.281.281 0 0 0 .004-.336.279.279 0 0 0-.387-.055c-1.566 1.2-3.066 2.465-4.566 3.73a232.28 232.28 0 0 0-4.422 3.876 380.092 380.092 0 0 0-4.324 3.972l-2.13 2.024-.066.066c-1.492-1.68-2.976-3.344-4.43-4.973l1.739-1.804c1.2-1.27 2.395-2.543 3.566-3.84a166.651 166.651 0 0 0 3.473-3.938c1.129-1.34 2.262-2.675 3.328-4.082a.275.275 0 0 0 0-.328.275.275 0 0 0-.387-.058c-1.414 1.05-2.765 2.168-4.113 3.285a176.113 176.113 0 0 0-3.972 3.43 256.346 256.346 0 0 0-3.876 3.53" style="fill:#fff"/><path d="M21.441 13.836C15.703 13.5 10.363 17.129 8.402 22.5c-1.734 4.75-.304 10.832 4.293 13.45-2.98-5.18-3.27-12.102 1.13-16.598 4.382-4.489 11.445-4.536 16.363-.895-2.016-2.758-5.368-4.418-8.747-4.621Zm34.043 114.777c5.024-5.867 10.047-11.734 15.075-17.601l14.687-17.153c2.473-2.886 4.945-5.777 7.418-8.668-5.77 5.676-11.539 11.348-17.312 17.02a80164.877 80164.877 0 0 0-18.457 18.144c-2.801 2.754-5.606 5.508-8.407 8.258 2.469 2.469 4.938 4.934 7.407 7.399l-.41-7.399Zm368.079-25.894c-5.133-5.043-10.27-10.09-15.403-15.137-.808-.797-1.62-1.594-2.43-2.39 5.43 6.343 10.864 12.687 16.293 19.027 5.34 6.238 10.68 12.472 16.02 18.707 1.11 1.3 2.223 2.597 3.332 3.894.398.465 1.36 1.223 1.535 1.825.102.332-.05.937-.07 1.277-.047.863-.094 1.726-.145 2.59-.062 1.168-.129 2.332-.191 3.5 2.469-2.465 4.937-4.93 7.406-7.399a20020 20020 0 0 1-9.226-9.066l-13.676-13.442-3.445-3.386Zm63.156-85.278c-5.164-4.847-14.121-4.988-18.508 1.016 4.914-3.64 11.976-3.594 16.363.895 4.395 4.496 4.106 11.418 1.13 16.597 3.026-1.726 4.8-5.18 5.007-8.594.226-3.699-1.367-7.343-3.992-9.914Zm-108.227 391.34a347.675 347.675 0 0 1-8.215 5.45c9.5 6.355 19.082 12.597 28.82 18.574 5.126 3.14 10.29 6.234 15.606 9.043 5.688 3.011 11.711 5.324 17.695 7.68 3.903 1.534 7.817 3.046 11.782 4.417a1165.72 1165.72 0 0 1-18.243-11.867c-9.394-6.226-18.94-12.43-27.722-19.512-6.281-5.07-12.63-9.894-19.723-13.785Zm34.762-285.93c-3.57 3.426-7.14 6.856-10.711 10.282-4.906 4.71-9.813 9.426-14.719 14.137-.316.304-1.113.812-1.285 1.234-.164.414.195 1.418.262 1.883.133.984.265 1.968.39 2.957.215 1.668.414 3.344.598 5.015 4.356-4.398 8.711-8.8 13.063-13.203 5.503-5.558 11.003-11.12 16.507-16.68.141-.14.621-.48.672-.68.059-.241-.191-.362-.433-.6-1.446-1.45-2.895-2.895-4.344-4.344Zm-332.973 4.86c3.418 3.457 6.84 6.914 10.258 10.367l16.336 16.512c1.242 1.258 2.488 2.512 3.73 3.77.192-1.727.399-3.458.618-5.184.12-.93.246-1.86.375-2.79.054-.398.41-1.542.246-1.894-.23-.488-1.063-1.023-1.446-1.387-2.59-2.492-5.183-4.98-7.773-7.468a32644.128 32644.128 0 0 1-16.773-16.11c-.122-.117-.48-.597-.653-.62-.215-.032-.527.413-.715.6-1.402 1.4-2.8 2.802-4.203 4.204ZM376.13 307.945c-3.285 13.633-7.004 27.157-10.574 40.715 6.36-22.098 13.382-44.07 17.332-66.77 1.984-11.413 3.183-23.085 2.633-34.675-.266-5.578-.903-11.133-2.098-16.59-1.195-5.45-3.008-10.71-5.125-15.863-4.211-10.227-9.305-20.063-14.067-30.035-1.226-2.567-2.433-5.141-3.55-7.754-1.102-2.567-2.07-5.168-3.364-7.649-2.574-4.933-5.695-9.578-8.84-14.16-6.308-9.184-13.269-17.969-20.59-26.367-7.288-8.367-15.171-16.172-22.148-24.813-7.129-8.832-13.707-18.117-21.183-26.664-6.625-7.578-15.246-16.597-26.149-16.18-22.441.86-38.828 19.333-51.363 36.005-13.59 18.066-25.188 37.546-38.016 56.144-4.386 6.36-8.968 12.54-12.933 19.18-5.57 9.32-10.352 19.105-14.817 28.992-4.789 10.605-9.175 21.398-13.324 32.27-4.047 10.605-6.555 21.496-7.226 32.843-1.325 22.356 3.726 44.887 12.425 65.403 2.106 4.96 4.43 9.836 7.09 14.527-4.625-8.828-8.152-18.234-11.054-27.754-3.063-10.04-5.204-20.34-6.258-30.79-1.059-10.515-.926-21.167.8-31.608a102.748 102.748 0 0 1 3.625-14.985c1.598-4.914 3.567-9.715 5.47-14.52 7.57-19.1 15.784-38.292 26.679-55.773 2.644-4.242 5.559-8.285 8.437-12.37a648.957 648.957 0 0 0 9.082-13.224c5.739-8.558 11.348-17.203 17.067-25.777 5.625-8.426 11.355-16.816 17.629-24.777 6.058-7.696 12.652-15.164 20.48-21.102 7.84-5.949 17.36-10.37 27.375-10.32 4.813.027 9.2 2.473 12.918 5.336 3.903 3.004 7.332 6.605 10.563 10.308 6.765 7.754 12.816 16.106 19.23 24.145 3.2 4.016 6.48 7.965 9.953 11.75 3.418 3.727 6.965 7.324 10.348 11.086a335.646 335.646 0 0 1 19.351 23.574c6.047 8.094 12.125 16.578 15.95 25.973 3.832 9.414 8.691 18.406 13.054 27.578 4.36 9.156 8.598 18.52 10.778 28.469 4.414 20.18 1.699 41.394-2.305 61.41a391.198 391.198 0 0 1-3.285 14.812Zm-20.102 68.676c-7.64 12.227-17.453 22.774-29.515 30.719a3610.102 3610.102 0 0 0-13.094 8.66c-2.754 1.832-5.504 3.664-8.254 5.496L287.137 433.5c-6.774 4.508-13.543 9.02-20.317 13.527-4.953 3.301-9.91 6.598-14.863 9.899-.668.445-1.34.89-2.008 1.336-.277.183-.722.629-1.05.699-.044.012-.098.098-.141.098-.168 0-.75-.63-.906-.758-.403-.336-.805-.672-1.211-1.008-.805-.672-1.614-1.34-2.422-2.012-3.18-2.629-6.375-5.242-9.586-7.836-12.559-10.148-25.246-20.18-38.383-29.574-3.73-2.664-7.488-5.32-11.363-7.777-4.203-2.664-8.387-5.098-12.035-8.547-5.22-4.93-9.493-10.774-13.286-16.844-4.113-6.582-7.738-13.465-10.976-20.515-1.598-3.477-3.106-7-4.531-10.551 2.433 7.949 5.695 15.675 9.382 23.12 3.426 6.907 7.383 13.595 12.16 19.661 2.41 3.059 5.047 5.992 8.012 8.527 2.254 1.93 4.715 3.512 7.227 5.07a196.988 196.988 0 0 1 8.515 5.587c13.833 9.632 27.07 20.125 40.16 30.742a1365.35 1365.35 0 0 1 9.903 8.101c1.672 1.375 3.34 2.758 5.004 4.14.808.669 1.613 1.34 2.422 2.013.547.457 1.21 1.277 2.015 1.148.871-.133 1.868-1.117 2.559-1.582l14.371-9.672c6.984-4.703 13.973-9.402 20.957-14.105 6.356-4.278 12.715-8.559 19.074-12.836l8.723-5.871c5.64-3.805 11.363-7.532 16.852-11.551 12.492-9.152 22.214-21.902 28.96-35.77a101.841 101.841 0 0 0 4.653-11.148c-2.45 6.059-5.52 11.867-8.98 17.41Zm-63.07-167.332c0 3.57 5.512 3.54 5.512 0 0-3.55-5.512-3.547-5.512 0Zm-.95 2.863c-1.612-2.086-1.171-5.152.97-6.687 2.101-1.504 5.074-.969 6.57 1.125 1.43 2 1.015 4.836-.895 6.37-2.027 1.63-5.058 1.243-6.644-.808ZM126.169 413.13c.605.394 1.215.789 1.824 1.183-9.539 6.383-19.16 12.649-28.949 18.645-5.063 3.102-10.164 6.156-15.418 8.93-5.71 3.015-11.762 5.332-17.762 7.691-3.86 1.516-7.73 3.016-11.644 4.367 6.61-4.21 13.176-8.496 19.703-12.84 9.812-6.527 19.625-13.109 28.742-20.593a116.245 116.245 0 0 1 12.297-8.832c1.39-.868 2.934-2.075 4.477-2.64.054-.02.253-.18.328-.185.25 0 .851.582 1.07.735.55.37 1.102.746 1.656 1.113 1.219.817 2.445 1.625 3.676 2.426" style="fill:#6f12ff"/></svg>